<svg width="384" height="172" viewBox="0 0 384 172" fill="none" xmlns="http://www.w3.org/2000/svg">
<mask id="path-1-outside-1_136_3" maskUnits="userSpaceOnUse" x="-0.624023" y="-0.451904" width="385" height="172" fill="black">
<rect fill="white" x="-0.624023" y="-0.451904" width="385" height="172"/>
<path d="M120.638 131.235H96.7635V168H77.0359V131.235H1.37598V113.413L75.6908 3.22943H96.7635V112.628H120.638V131.235ZM77.0359 112.628V72.7245C77.0359 68.5398 77.0733 64.1684 77.148 59.6101C77.2974 54.9771 77.4469 50.4935 77.5963 46.1594C77.7458 41.7506 77.8952 37.6407 78.0447 33.8297C78.2689 30.0186 78.4183 26.8428 78.4931 24.3021H77.4843C76.9612 25.7966 76.2886 27.478 75.4667 29.3461C74.7194 31.1395 73.8601 32.9703 72.8886 34.8385C71.9919 36.6319 71.0578 38.3879 70.0864 40.1066C69.115 41.8253 68.2182 43.2825 67.3963 44.4781L21.3278 112.628H77.0359Z"/>
<path d="M240.91 85.8389C240.91 99.0653 239.938 110.909 237.995 121.371C236.127 131.833 233.063 140.688 228.804 147.936C224.619 155.184 219.202 160.714 212.551 164.525C205.901 168.336 197.83 170.242 188.34 170.242C179.522 170.242 171.826 168.336 165.25 164.525C158.749 160.714 153.331 155.184 148.997 147.936C144.738 140.688 141.524 131.833 139.357 121.371C137.265 110.909 136.219 99.0653 136.219 85.8389C136.219 72.6124 137.153 60.7683 139.021 50.3067C140.964 39.8451 143.99 31.0274 148.1 23.8538C152.285 16.6054 157.665 11.0756 164.241 7.26462C170.892 3.4536 178.925 1.5481 188.34 1.5481C197.232 1.5481 204.967 3.4536 211.542 7.26462C218.118 11.0009 223.573 16.4933 227.907 23.7417C232.241 30.9154 235.492 39.733 237.659 50.1946C239.826 60.6562 240.91 72.5377 240.91 85.8389ZM156.955 85.8389C156.955 97.0477 157.516 106.837 158.637 115.206C159.757 123.575 161.551 130.562 164.017 136.167C166.483 141.696 169.696 145.881 173.656 148.721C177.692 151.486 182.586 152.868 188.34 152.868C194.094 152.868 198.988 151.486 203.024 148.721C207.059 145.956 210.347 141.809 212.887 136.279C215.503 130.749 217.371 123.8 218.492 115.43C219.688 106.986 220.285 97.1225 220.285 85.8389C220.285 74.63 219.688 64.8409 218.492 56.4716C217.371 48.1023 215.503 41.1528 212.887 35.6231C210.347 30.0934 207.059 25.9461 203.024 23.1812C198.988 20.4164 194.094 19.0339 188.34 19.0339C182.586 19.0339 177.692 20.4164 173.656 23.1812C169.696 25.9461 166.483 30.0934 164.017 35.6231C161.551 41.1528 159.757 48.1023 158.637 56.4716C157.516 64.8409 156.955 74.63 156.955 85.8389Z"/>
<path d="M373.511 131.235H349.636V168H329.908V131.235H254.248V113.413L328.563 3.22943H349.636V112.628H373.511V131.235ZM329.908 112.628V72.7245C329.908 68.5398 329.946 64.1684 330.02 59.6101C330.17 54.9771 330.319 50.4935 330.469 46.1594C330.618 41.7506 330.768 37.6407 330.917 33.8297C331.141 30.0186 331.291 26.8428 331.365 24.3021H330.357C329.833 25.7966 329.161 27.478 328.339 29.3461C327.592 31.1395 326.732 32.9703 325.761 34.8385C324.864 36.6319 323.93 38.3879 322.959 40.1066C321.987 41.8253 321.091 43.2825 320.269 44.4781L274.2 112.628H329.908Z"/>
<path d="M129.638 131.235H105.764V168H86.0359V131.235H10.376V113.413L84.6908 3.22943H105.764V112.628H129.638V131.235ZM86.0359 112.628V72.7245C86.0359 68.5398 86.0733 64.1684 86.148 59.6101C86.2974 54.9771 86.4469 50.4935 86.5963 46.1594C86.7458 41.7506 86.8952 37.6407 87.0447 33.8297C87.2689 30.0186 87.4183 26.8428 87.4931 24.3021H86.4843C85.9612 25.7966 85.2886 27.478 84.4667 29.3461C83.7194 31.1395 82.8601 32.9703 81.8886 34.8385C80.9919 36.6319 80.0578 38.3879 79.0864 40.1066C78.115 41.8253 77.2182 43.2825 76.3963 44.4781L30.3278 112.628H86.0359ZM249.91 85.8389C249.91 99.0653 248.938 110.909 246.995 121.371C245.127 131.833 242.063 140.688 237.804 147.936C233.619 155.184 228.202 160.714 221.551 164.525C214.901 168.336 206.83 170.242 197.34 170.242C188.522 170.242 180.826 168.336 174.25 164.525C167.749 160.714 162.331 155.184 157.997 147.936C153.738 140.688 150.524 131.833 148.357 121.371C146.265 110.909 145.219 99.0653 145.219 85.8389C145.219 72.6124 146.153 60.7683 148.021 50.3067C149.964 39.8451 152.99 31.0274 157.1 23.8538C161.285 16.6054 166.665 11.0756 173.241 7.26462C179.892 3.4536 187.925 1.5481 197.34 1.5481C206.232 1.5481 213.967 3.4536 220.542 7.26462C227.118 11.0009 232.573 16.4933 236.907 23.7417C241.241 30.9154 244.492 39.733 246.659 50.1946C248.826 60.6562 249.91 72.5377 249.91 85.8389ZM165.955 85.8389C165.955 97.0477 166.516 106.837 167.637 115.206C168.757 123.575 170.551 130.562 173.017 136.167C175.483 141.696 178.696 145.881 182.656 148.721C186.692 151.486 191.586 152.868 197.34 152.868C203.094 152.868 207.988 151.486 212.024 148.721C216.059 145.956 219.347 141.809 221.887 136.279C224.503 130.749 226.371 123.8 227.492 115.43C228.688 106.986 229.285 97.1225 229.285 85.8389C229.285 74.63 228.688 64.8409 227.492 56.4716C226.371 48.1023 224.503 41.1528 221.887 35.6231C219.347 30.0934 216.059 25.9461 212.024 23.1812C207.988 20.4164 203.094 19.0339 197.34 19.0339C191.586 19.0339 186.692 20.4164 182.656 23.1812C178.696 25.9461 175.483 30.0934 173.017 35.6231C170.551 41.1528 168.757 48.1023 167.637 56.4716C166.516 64.8409 165.955 74.63 165.955 85.8389ZM382.511 131.235H358.636V168H338.908V131.235H263.248V113.413L337.563 3.22943H358.636V112.628H382.511V131.235ZM338.908 112.628V72.7245C338.908 68.5398 338.946 64.1684 339.02 59.6101C339.17 54.9771 339.319 50.4935 339.469 46.1594C339.618 41.7506 339.768 37.6407 339.917 33.8297C340.141 30.0186 340.291 26.8428 340.365 24.3021H339.357C338.833 25.7966 338.161 27.478 337.339 29.3461C336.592 31.1395 335.732 32.9703 334.761 34.8385C333.864 36.6319 332.93 38.3879 331.959 40.1066C330.987 41.8253 330.091 43.2825 329.269 44.4781L283.2 112.628H338.908Z"/>
</mask>
<path d="M120.638 131.235H96.7635V168H77.0359V131.235H1.37598V113.413L75.6908 3.22943H96.7635V112.628H120.638V131.235ZM77.0359 112.628V72.7245C77.0359 68.5398 77.0733 64.1684 77.148 59.6101C77.2974 54.9771 77.4469 50.4935 77.5963 46.1594C77.7458 41.7506 77.8952 37.6407 78.0447 33.8297C78.2689 30.0186 78.4183 26.8428 78.4931 24.3021H77.4843C76.9612 25.7966 76.2886 27.478 75.4667 29.3461C74.7194 31.1395 73.8601 32.9703 72.8886 34.8385C71.9919 36.6319 71.0578 38.3879 70.0864 40.1066C69.115 41.8253 68.2182 43.2825 67.3963 44.4781L21.3278 112.628H77.0359Z" fill="black"/>
<path d="M240.91 85.8389C240.91 99.0653 239.938 110.909 237.995 121.371C236.127 131.833 233.063 140.688 228.804 147.936C224.619 155.184 219.202 160.714 212.551 164.525C205.901 168.336 197.83 170.242 188.34 170.242C179.522 170.242 171.826 168.336 165.25 164.525C158.749 160.714 153.331 155.184 148.997 147.936C144.738 140.688 141.524 131.833 139.357 121.371C137.265 110.909 136.219 99.0653 136.219 85.8389C136.219 72.6124 137.153 60.7683 139.021 50.3067C140.964 39.8451 143.99 31.0274 148.1 23.8538C152.285 16.6054 157.665 11.0756 164.241 7.26462C170.892 3.4536 178.925 1.5481 188.34 1.5481C197.232 1.5481 204.967 3.4536 211.542 7.26462C218.118 11.0009 223.573 16.4933 227.907 23.7417C232.241 30.9154 235.492 39.733 237.659 50.1946C239.826 60.6562 240.91 72.5377 240.91 85.8389ZM156.955 85.8389C156.955 97.0477 157.516 106.837 158.637 115.206C159.757 123.575 161.551 130.562 164.017 136.167C166.483 141.696 169.696 145.881 173.656 148.721C177.692 151.486 182.586 152.868 188.34 152.868C194.094 152.868 198.988 151.486 203.024 148.721C207.059 145.956 210.347 141.809 212.887 136.279C215.503 130.749 217.371 123.8 218.492 115.43C219.688 106.986 220.285 97.1225 220.285 85.8389C220.285 74.63 219.688 64.8409 218.492 56.4716C217.371 48.1023 215.503 41.1528 212.887 35.6231C210.347 30.0934 207.059 25.9461 203.024 23.1812C198.988 20.4164 194.094 19.0339 188.34 19.0339C182.586 19.0339 177.692 20.4164 173.656 23.1812C169.696 25.9461 166.483 30.0934 164.017 35.6231C161.551 41.1528 159.757 48.1023 158.637 56.4716C157.516 64.8409 156.955 74.63 156.955 85.8389Z" fill="black"/>
<path d="M373.511 131.235H349.636V168H329.908V131.235H254.248V113.413L328.563 3.22943H349.636V112.628H373.511V131.235ZM329.908 112.628V72.7245C329.908 68.5398 329.946 64.1684 330.02 59.6101C330.17 54.9771 330.319 50.4935 330.469 46.1594C330.618 41.7506 330.768 37.6407 330.917 33.8297C331.141 30.0186 331.291 26.8428 331.365 24.3021H330.357C329.833 25.7966 329.161 27.478 328.339 29.3461C327.592 31.1395 326.732 32.9703 325.761 34.8385C324.864 36.6319 323.93 38.3879 322.959 40.1066C321.987 41.8253 321.091 43.2825 320.269 44.4781L274.2 112.628H329.908Z" fill="black"/>
<path d="M120.638 131.235H96.7635V168H77.0359V131.235H1.37598V113.413L75.6908 3.22943H96.7635V112.628H120.638V131.235ZM77.0359 112.628V72.7245C77.0359 68.5398 77.0733 64.1684 77.148 59.6101C77.2974 54.9771 77.4469 50.4935 77.5963 46.1594C77.7458 41.7506 77.8952 37.6407 78.0447 33.8297C78.2689 30.0186 78.4183 26.8428 78.4931 24.3021H77.4843C76.9612 25.7966 76.2886 27.478 75.4667 29.3461C74.7194 31.1395 73.8601 32.9703 72.8886 34.8385C71.9919 36.6319 71.0578 38.3879 70.0864 40.1066C69.115 41.8253 68.2182 43.2825 67.3963 44.4781L21.3278 112.628H77.0359Z" stroke="black" stroke-width="2.34934" mask="url(#path-1-outside-1_136_3)"/>
<path d="M240.91 85.8389C240.91 99.0653 239.938 110.909 237.995 121.371C236.127 131.833 233.063 140.688 228.804 147.936C224.619 155.184 219.202 160.714 212.551 164.525C205.901 168.336 197.83 170.242 188.34 170.242C179.522 170.242 171.826 168.336 165.25 164.525C158.749 160.714 153.331 155.184 148.997 147.936C144.738 140.688 141.524 131.833 139.357 121.371C137.265 110.909 136.219 99.0653 136.219 85.8389C136.219 72.6124 137.153 60.7683 139.021 50.3067C140.964 39.8451 143.99 31.0274 148.1 23.8538C152.285 16.6054 157.665 11.0756 164.241 7.26462C170.892 3.4536 178.925 1.5481 188.34 1.5481C197.232 1.5481 204.967 3.4536 211.542 7.26462C218.118 11.0009 223.573 16.4933 227.907 23.7417C232.241 30.9154 235.492 39.733 237.659 50.1946C239.826 60.6562 240.91 72.5377 240.91 85.8389ZM156.955 85.8389C156.955 97.0477 157.516 106.837 158.637 115.206C159.757 123.575 161.551 130.562 164.017 136.167C166.483 141.696 169.696 145.881 173.656 148.721C177.692 151.486 182.586 152.868 188.34 152.868C194.094 152.868 198.988 151.486 203.024 148.721C207.059 145.956 210.347 141.809 212.887 136.279C215.503 130.749 217.371 123.8 218.492 115.43C219.688 106.986 220.285 97.1225 220.285 85.8389C220.285 74.63 219.688 64.8409 218.492 56.4716C217.371 48.1023 215.503 41.1528 212.887 35.6231C210.347 30.0934 207.059 25.9461 203.024 23.1812C198.988 20.4164 194.094 19.0339 188.34 19.0339C182.586 19.0339 177.692 20.4164 173.656 23.1812C169.696 25.9461 166.483 30.0934 164.017 35.6231C161.551 41.1528 159.757 48.1023 158.637 56.4716C157.516 64.8409 156.955 74.63 156.955 85.8389Z" stroke="black" stroke-width="2.34934" mask="url(#path-1-outside-1_136_3)"/>
<path d="M373.511 131.235H349.636V168H329.908V131.235H254.248V113.413L328.563 3.22943H349.636V112.628H373.511V131.235ZM329.908 112.628V72.7245C329.908 68.5398 329.946 64.1684 330.02 59.6101C330.17 54.9771 330.319 50.4935 330.469 46.1594C330.618 41.7506 330.768 37.6407 330.917 33.8297C331.141 30.0186 331.291 26.8428 331.365 24.3021H330.357C329.833 25.7966 329.161 27.478 328.339 29.3461C327.592 31.1395 326.732 32.9703 325.761 34.8385C324.864 36.6319 323.93 38.3879 322.959 40.1066C321.987 41.8253 321.091 43.2825 320.269 44.4781L274.2 112.628H329.908Z" stroke="black" stroke-width="2.34934" mask="url(#path-1-outside-1_136_3)"/>
<path d="M129.638 131.235H105.764V168H86.0359V131.235H10.376V113.413L84.6908 3.22943H105.764V112.628H129.638V131.235ZM86.0359 112.628V72.7245C86.0359 68.5398 86.0733 64.1684 86.148 59.6101C86.2974 54.9771 86.4469 50.4935 86.5963 46.1594C86.7458 41.7506 86.8952 37.6407 87.0447 33.8297C87.2689 30.0186 87.4183 26.8428 87.4931 24.3021H86.4843C85.9612 25.7966 85.2886 27.478 84.4667 29.3461C83.7194 31.1395 82.8601 32.9703 81.8886 34.8385C80.9919 36.6319 80.0578 38.3879 79.0864 40.1066C78.115 41.8253 77.2182 43.2825 76.3963 44.4781L30.3278 112.628H86.0359ZM249.91 85.8389C249.91 99.0653 248.938 110.909 246.995 121.371C245.127 131.833 242.063 140.688 237.804 147.936C233.619 155.184 228.202 160.714 221.551 164.525C214.901 168.336 206.83 170.242 197.34 170.242C188.522 170.242 180.826 168.336 174.25 164.525C167.749 160.714 162.331 155.184 157.997 147.936C153.738 140.688 150.524 131.833 148.357 121.371C146.265 110.909 145.219 99.0653 145.219 85.8389C145.219 72.6124 146.153 60.7683 148.021 50.3067C149.964 39.8451 152.99 31.0274 157.1 23.8538C161.285 16.6054 166.665 11.0756 173.241 7.26462C179.892 3.4536 187.925 1.5481 197.34 1.5481C206.232 1.5481 213.967 3.4536 220.542 7.26462C227.118 11.0009 232.573 16.4933 236.907 23.7417C241.241 30.9154 244.492 39.733 246.659 50.1946C248.826 60.6562 249.91 72.5377 249.91 85.8389ZM165.955 85.8389C165.955 97.0477 166.516 106.837 167.637 115.206C168.757 123.575 170.551 130.562 173.017 136.167C175.483 141.696 178.696 145.881 182.656 148.721C186.692 151.486 191.586 152.868 197.34 152.868C203.094 152.868 207.988 151.486 212.024 148.721C216.059 145.956 219.347 141.809 221.887 136.279C224.503 130.749 226.371 123.8 227.492 115.43C228.688 106.986 229.285 97.1225 229.285 85.8389C229.285 74.63 228.688 64.8409 227.492 56.4716C226.371 48.1023 224.503 41.1528 221.887 35.6231C219.347 30.0934 216.059 25.9461 212.024 23.1812C207.988 20.4164 203.094 19.0339 197.34 19.0339C191.586 19.0339 186.692 20.4164 182.656 23.1812C178.696 25.9461 175.483 30.0934 173.017 35.6231C170.551 41.1528 168.757 48.1023 167.637 56.4716C166.516 64.8409 165.955 74.63 165.955 85.8389ZM382.511 131.235H358.636V168H338.908V131.235H263.248V113.413L337.563 3.22943H358.636V112.628H382.511V131.235ZM338.908 112.628V72.7245C338.908 68.5398 338.946 64.1684 339.02 59.6101C339.17 54.9771 339.319 50.4935 339.469 46.1594C339.618 41.7506 339.768 37.6407 339.917 33.8297C340.141 30.0186 340.291 26.8428 340.365 24.3021H339.357C338.833 25.7966 338.161 27.478 337.339 29.3461C336.592 31.1395 335.732 32.9703 334.761 34.8385C333.864 36.6319 332.93 38.3879 331.959 40.1066C330.987 41.8253 330.091 43.2825 329.269 44.4781L283.2 112.628H338.908Z" stroke="black" stroke-width="2.34934" mask="url(#path-1-outside-1_136_3)"/>
</svg>
