<svg width="438" height="278" viewBox="0 0 438 278" fill="none" xmlns="http://www.w3.org/2000/svg">
<path d="M433.768 11.0471C434.228 9.86882 434.124 8.74218 433.522 7.59033L434.481 6.43723L433.712 5.79766L432.817 6.87388L432.509 6.61805C431.664 5.91453 430.716 5.6464 429.589 5.74973L429.026 5.80139L428.27 4.52163C428.103 4.25288 427.936 3.98414 427.629 3.72831C427.168 3.34456 426.578 3.11457 425.938 3.10227C425.221 3.02602 424.671 3.21851 424.197 3.47496C423.596 3.88516 423.212 4.3464 422.918 5.01243C422.701 5.74241 422.612 6.31865 422.804 6.86905C421.537 7.76632 420.937 8.95754 421.079 10.5067C421.182 11.6333 421.618 12.5164 422.464 13.22C422.848 13.5397 423.079 13.7316 423.373 13.8466C423.323 14.8453 423.618 15.7414 424.387 16.3809C424.617 16.5728 424.925 16.8286 425.219 16.9436C425.809 17.1736 426.372 17.122 426.999 16.9934C427.69 16.788 428.164 16.5316 428.548 16.0703C428.803 15.7628 428.995 15.5322 429.11 15.2376L429.749 13.6879L430.466 13.7641C431.593 13.6608 432.604 13.071 433.295 12.0846L434.294 12.9161L434.998 12.0704L433.768 11.0471ZM424.84 6.61136C424.57 5.99699 424.673 5.56159 425.21 5.22826C425.748 4.89494 426.183 4.99702 426.516 5.53451L428.209 8.50362C426.467 8.09529 425.417 7.48155 424.84 6.61136ZM426.101 14.9456C425.512 14.7156 425.333 14.306 425.486 13.6529C425.895 12.6923 426.816 11.8977 428.454 11.1794L427.394 14.33C427.1 14.996 426.69 15.1756 426.101 14.9456ZM430.413 11.6388L430.976 10.0251L431.04 9.94818L431.001 9.52569L430.924 9.46174L430.078 7.97718C430.577 8.00239 431.012 8.10447 431.397 8.42426C431.781 8.74405 432.038 9.21758 432.089 9.7809C432.141 10.3442 432.039 10.7796 431.719 11.164C431.373 11.2667 430.9 11.5232 430.413 11.6388Z" fill="black"/>
<path d="M404.568 15.7666C365.857 15.7666 335.516 37.3225 314.42 68.6881C301.129 88.4498 298.951 114.272 328.707 114.567C335.29 114.632 342.994 112.022 342.994 104.506C342.994 85.433 318.977 79.1516 303.554 79.1516C285.05 79.1516 267.67 83.8023 254.959 98.469C239.532 116.269 230.309 141.832 221.657 163.464C209.512 193.826 191.059 215.775 164.107 235.099C122.119 265.204 66.6383 289.554 15.4037 267.596C4.3985 262.88 2.52552 252.263 2.52552 241.136C2.52552 233.84 -0.497761 224.335 7.95852 222.221" stroke="black" stroke-width="3" stroke-linecap="round" stroke-dasharray="15 15"/>
</svg>
