<svg width="174" height="232" viewBox="0 0 174 232" fill="none" xmlns="http://www.w3.org/2000/svg">
<path d="M81.3886 16.6912C69.592 4.89457 47.3341 -1.86648 30.6492 4.62209C17.5678 9.70928 10.4082 27.4731 6.01836 39.3515C-9.75443 82.0308 22.663 127.704 68.088 125.313C85.5838 124.392 102.863 110.511 121.291 117.677C132.341 121.975 145.96 125.598 154.542 134.18C164.558 144.196 166.012 154.676 169.074 167.801C173.027 184.741 174.51 196.793 161.192 209.797C143.991 226.593 118.904 222.851 96.906 222.851" stroke="black" stroke-width="3" stroke-linecap="round" stroke-dasharray="15 15"/>
<path d="M71.627 223.047C71.167 221.869 71.2703 220.742 71.873 219.59L70.9136 218.437L71.6824 217.798L72.5778 218.874L72.8853 218.618C73.7309 217.915 74.6785 217.646 75.8052 217.75L76.3685 217.801L77.1249 216.522C77.2916 216.253 77.4583 215.984 77.7658 215.728C78.227 215.345 78.8162 215.115 79.4563 215.102C80.1734 215.026 80.7238 215.219 81.1974 215.475C81.7988 215.885 82.1825 216.346 82.4765 217.012C82.6936 217.742 82.7827 218.319 82.5903 218.869C83.8571 219.766 84.4579 220.958 84.3159 222.507C84.2125 223.633 83.7765 224.516 82.9309 225.22C82.5465 225.54 82.3159 225.732 82.0213 225.847C82.0718 226.845 81.7766 227.741 81.0078 228.381C80.7772 228.573 80.4697 228.829 80.1751 228.944C79.586 229.174 79.0227 229.122 78.3954 228.993C77.7041 228.788 77.2306 228.532 76.8469 228.07C76.591 227.763 76.3992 227.532 76.2842 227.238L75.6452 225.688L74.9282 225.764C73.8015 225.661 72.7905 225.071 72.0999 224.085L71.1005 224.916L70.397 224.07L71.627 223.047ZM80.5547 218.611C80.824 217.997 80.722 217.562 80.1845 217.228C79.647 216.895 79.2116 216.997 78.8782 217.535L77.1858 220.504C78.9274 220.095 79.9778 219.482 80.5547 218.611ZM79.2933 226.946C79.8824 226.716 80.062 226.306 79.9089 225.653C79.4999 224.692 78.5787 223.898 76.9404 223.179L78.0006 226.33C78.2945 226.996 78.7041 227.176 79.2933 226.946ZM74.9811 223.639L74.419 222.025L74.355 221.948L74.3938 221.526L74.4706 221.462L75.3169 219.977C74.8175 220.002 74.3821 220.104 73.9977 220.424C73.6134 220.744 73.3569 221.218 73.3053 221.781C73.2536 222.344 73.3557 222.78 73.6755 223.164C74.0211 223.267 74.4946 223.523 74.9811 223.639Z" fill="black"/>
</svg>
