<svg width="89" height="64" viewBox="0 0 89 64" fill="none" xmlns="http://www.w3.org/2000/svg">
<path d="M70.4243 63.8513C68.0299 63.8513 65.7724 63.4066 63.6517 62.5173C61.5994 61.628 59.7865 60.3966 58.2131 58.8232C56.6396 57.2497 55.374 55.4026 54.4163 53.2819C53.527 51.1612 53.0823 48.9037 53.0823 46.5093C53.0823 43.5677 53.3901 40.797 54.0058 38.1975C54.6899 35.5979 55.6477 33.0667 56.8791 30.6039C58.1104 28.0727 59.6155 25.5758 61.3941 23.113C63.1728 20.6502 65.1567 18.0164 67.3458 15.2116L79.044 0.537598L88.6898 5.1553L79.3518 31.6301C81.883 33.1351 83.9011 35.1874 85.4061 37.787C86.9796 40.3182 87.7663 43.2256 87.7663 46.5093C87.7663 48.9037 87.3216 51.1612 86.4323 53.2819C85.543 55.4026 84.3116 57.2497 82.7381 58.8232C81.2331 60.3966 79.4202 61.628 77.2995 62.5173C75.1788 63.4066 72.8871 63.8513 70.4243 63.8513ZM17.5774 63.8513C15.183 63.8513 12.9255 63.4066 10.8047 62.5173C8.75243 61.628 6.93956 60.3966 5.36612 58.8232C3.79269 57.2497 2.5271 55.4026 1.56935 53.2819C0.680018 51.1612 0.235352 48.9037 0.235352 46.5093C0.235352 43.5677 0.543197 40.797 1.15889 38.1975C1.84299 35.5979 2.80074 33.0667 4.03212 30.6039C5.26351 28.0727 6.76853 25.5758 8.5472 23.113C10.3259 20.6502 12.3098 18.0164 14.4989 15.2116L26.1971 0.537598L35.8429 5.1553L26.5049 31.6301C29.0361 33.1351 31.0542 35.1874 32.5592 37.787C34.1326 40.3182 34.9194 43.2256 34.9194 46.5093C34.9194 48.9037 34.4747 51.1612 33.5854 53.2819C32.696 55.4026 31.4646 57.2497 29.8912 58.8232C28.3862 60.3966 26.5733 61.628 24.4526 62.5173C22.3319 63.4066 20.0401 63.8513 17.5774 63.8513Z" fill="black" fill-opacity="0.27"/>
</svg>
