<svg width="196" height="196" viewBox="0 0 196 196" fill="none" xmlns="http://www.w3.org/2000/svg">
<path d="M17.4688 107.538C12.7206 102.927 8.5668 103.299 2.34619 105.184L11.3396 139.202C23.7217 159.274 57.0102 198.402 98.9271 192.771C151.323 185.733 182.213 162.663 192.38 115.328L193.162 106.747C190.463 106.747 194.924 112.652 192.38 112.652C191.557 111.44 188.079 115.936 179.638 116.815M68.4278 119.651C73.3677 119.721 80.9403 115.328 88.3696 115.328C95.7989 115.328 100.982 118.638 105.719 120.621C110.979 122.823 116.521 123.232 122.192 122.702C128.085 122.151 132.786 118.533 137.535 115.328" stroke="white" stroke-width="2.34609" stroke-linecap="round"/>
<path d="M71.6687 23.4148H76.7598L61.5508 68.5262L46.2774 23.4148H51.3686L61.5508 53.4461L71.6687 23.4148ZM79.0184 28.3126H84.1096V68.3328H79.0184V28.3126ZM110.816 57.5061C110.816 59.0098 110.516 60.4491 109.914 61.8239C109.356 63.1558 108.561 64.3158 107.53 65.3039C106.542 66.2921 105.382 67.0869 104.05 67.6884C102.718 68.2469 101.279 68.5262 99.7319 68.5262C98.1852 68.5262 96.7459 68.2469 95.4141 67.6884C94.0822 67.0869 92.9007 66.2921 91.8696 65.3039C90.8815 64.3158 90.0866 63.1558 89.4852 61.8239C88.9266 60.4491 88.6474 59.0098 88.6474 57.5061H93.7385C93.7385 58.3224 93.8889 59.0957 94.1896 59.8261C94.5333 60.5565 94.963 61.2009 95.4785 61.7595C96.037 62.275 96.6815 62.6832 97.4119 62.9839C98.1422 63.2846 98.9156 63.435 99.7319 63.435C100.548 63.435 101.322 63.2846 102.052 62.9839C102.782 62.6832 103.405 62.275 103.921 61.7595C104.479 61.2009 104.909 60.5565 105.21 59.8261C105.553 59.0957 105.725 58.3224 105.725 57.5061C105.725 56.0883 105.296 54.8209 104.436 53.7039C103.62 52.5868 102.567 51.5557 101.279 50.6105C100.033 49.6223 98.6578 48.6772 97.1541 47.7749C95.6933 46.8297 94.3185 45.8631 93.0296 44.8749C91.7837 43.8438 90.7311 42.7482 89.8718 41.5882C89.0555 40.4282 88.6474 39.0964 88.6474 37.5926C88.6474 36.2178 88.9052 34.9504 89.4207 33.7904C89.9792 32.6304 90.7096 31.6422 91.6118 30.8259C92.557 29.9667 93.6311 29.3007 94.8341 28.8281C96.037 28.3556 97.3045 28.1193 98.6363 28.1193C99.9682 28.1193 101.214 28.3556 102.374 28.8281C103.534 29.3007 104.544 29.9667 105.403 30.8259C106.305 31.6422 106.993 32.6304 107.465 33.7904C107.981 34.9504 108.239 36.2178 108.239 37.5926H103.147C103.147 36.3467 102.739 35.3156 101.923 34.4993C101.107 33.64 100.011 33.2104 98.6363 33.2104C97.2615 33.2104 96.1015 33.64 95.1563 34.4993C94.2111 35.3156 93.7385 36.3467 93.7385 37.5926C93.7385 38.4949 94.1467 39.3541 94.963 40.1704C95.8222 40.9867 96.8748 41.8245 98.1208 42.6838C99.4097 43.5431 100.784 44.4668 102.245 45.4549C103.749 46.4001 105.124 47.4742 106.37 48.6772C107.659 49.8372 108.711 51.1475 109.527 52.6083C110.387 54.0261 110.816 55.6587 110.816 57.5061ZM114.702 28.3126H119.793V68.3328H114.702V28.3126ZM123.828 33.2104V28.3126H146.706V33.2104H137.812V68.3328H132.721V33.2104H123.828Z" fill="white"/>
<path d="M79.9462 81.4296V109.857H76.284V81.4296H69.6006V77.9506H86.6296V81.4296H79.9462ZM102.542 81.4296H106.205V109.857H102.542V103.677H93.0208V109.857H89.4044V81.4296H93.0208V100.198H102.542V81.4296ZM109.387 81.4296H122.662V84.9087H113.004V98.3671H120.831V101.846H113.004V106.378H122.662V109.857H109.387V81.4296Z" fill="white"/>
<path d="M27.3711 99.2718H32.4622V130.592H46.769V99.2718H51.9246V144.19H46.769V135.49H32.4622V144.19H27.3711V99.2718Z" fill="white"/>
<path d="M144.676 99.2718H152.538C154.987 99.2718 157.243 99.7014 159.305 100.561C161.367 101.377 163.15 102.537 164.654 104.041C166.2 105.501 167.403 107.263 168.263 109.325C169.122 111.387 169.551 113.643 169.551 116.092C169.551 119.572 168.714 122.622 167.038 125.243C165.406 127.864 163.193 129.84 160.4 131.172L169.551 144.19H163.558L155.825 132.654C154.837 132.826 153.827 132.912 152.796 132.912C151.765 132.912 150.755 132.912 149.767 132.912V144.19H144.676V99.2718ZM149.767 128.014H152.538C153.956 128.014 155.374 127.778 156.791 127.305C158.252 126.833 159.541 126.102 160.658 125.114C161.775 124.126 162.677 122.902 163.365 121.441C164.095 119.937 164.46 118.154 164.46 116.092C164.46 114.03 164.095 112.268 163.365 110.807C162.677 109.304 161.754 108.058 160.594 107.07C159.477 106.081 158.209 105.351 156.791 104.879C155.374 104.406 153.956 104.17 152.538 104.17H149.767V128.014Z" fill="white"/>
<path d="M56.5238 120.984L69.0776 155.177H64.6727L62.7456 149.836H50.357L48.3749 155.177H44.0251L56.5238 120.984ZM61.2039 145.651L56.5238 132.877L51.8987 145.651H61.2039Z" fill="white"/>
<path d="M68.8188 129.292H76.2823C78.699 129.292 80.9736 129.647 83.106 130.358C85.2384 131.022 87.1102 132.04 88.7214 133.415C90.3799 134.741 91.683 136.4 92.6308 138.39C93.5785 140.333 94.0524 142.584 94.0524 145.143C94.0524 148.744 93.152 151.753 91.3513 154.17C89.5506 156.587 87.205 158.364 84.3144 159.501L94.0524 173.433H87.8684L78.9833 160.852C78.2252 160.946 77.467 160.994 76.7088 160.994C75.998 160.994 75.2398 160.994 74.4342 160.994V173.433H68.8188V129.292ZM74.4342 155.592H76.2823C77.8461 155.592 79.3624 155.378 80.8314 154.952C82.3004 154.525 83.6036 153.886 84.7409 153.033C85.8781 152.18 86.7785 151.114 87.4419 149.834C88.1053 148.507 88.437 146.944 88.437 145.143C88.437 143.342 88.0816 141.778 87.3708 140.452C86.7074 139.125 85.8071 138.035 84.6698 137.182C83.5325 136.329 82.2293 135.713 80.7604 135.334C79.3387 134.907 77.8461 134.694 76.2823 134.694H74.4342V155.592Z" fill="white"/>
<path d="M93.0615 128.482H104.067C105.297 128.482 106.436 128.709 107.484 129.165C108.578 129.575 109.512 130.168 110.287 130.942C111.107 131.717 111.745 132.628 112.201 133.677C112.657 134.725 112.884 135.864 112.884 137.094C112.884 139.282 112.155 141.173 110.697 142.768C113.386 144.226 115.505 146.299 117.054 148.988C118.649 151.677 119.447 154.775 119.447 158.284C119.447 160.882 118.991 163.274 118.079 165.462C117.168 167.649 115.892 169.54 114.252 171.135C112.657 172.684 110.765 173.915 108.578 174.826C106.391 175.692 103.998 176.125 101.401 176.125H93.0615V128.482ZM104.067 140.444C105.024 140.444 105.821 140.125 106.459 139.487C107.143 138.803 107.484 138.006 107.484 137.094C107.484 136.137 107.143 135.34 106.459 134.702C105.776 134.018 104.978 133.677 104.067 133.677H98.4616V140.444H104.067ZM98.4616 170.93H101.401C102.905 170.93 104.408 170.679 105.912 170.178C107.416 169.677 108.76 168.925 109.945 167.922C111.176 166.874 112.155 165.553 112.884 163.958C113.659 162.363 114.047 160.472 114.047 158.284C114.047 156.097 113.659 154.229 112.884 152.679C112.155 151.084 111.198 149.763 110.014 148.715C108.829 147.667 107.462 146.892 105.912 146.391C104.408 145.889 102.905 145.639 101.401 145.639H98.4616V170.93Z" fill="white"/>
<path d="M131.466 123.947C133.815 123.947 136.036 124.406 138.128 125.323C140.257 126.204 142.092 127.434 143.634 129.013C145.212 130.591 146.461 132.426 147.378 134.519C148.296 136.611 148.755 138.832 148.755 141.181C148.755 143.567 148.296 145.824 147.378 147.953C146.497 150.046 145.268 151.881 143.689 153.459C142.111 155.001 140.275 156.231 138.183 157.148C136.091 158.029 133.852 158.47 131.466 158.47C129.08 158.47 126.841 158.029 124.748 157.148C122.656 156.231 120.821 155.001 119.242 153.459C117.664 151.881 116.416 150.046 115.498 147.953C114.617 145.824 114.177 143.567 114.177 141.181C114.177 138.795 114.617 136.556 115.498 134.464C116.416 132.371 117.664 130.554 119.242 129.013C120.821 127.434 122.656 126.204 124.748 125.323C126.841 124.406 129.08 123.947 131.466 123.947ZM131.466 128.297C129.667 128.297 127.979 128.645 126.4 129.343C124.858 130.004 123.5 130.921 122.326 132.096C121.151 133.234 120.215 134.592 119.518 136.17C118.857 137.749 118.527 139.419 118.527 141.181C118.527 142.98 118.857 144.668 119.518 146.246C120.215 147.788 121.151 149.146 122.326 150.321C123.5 151.496 124.858 152.432 126.4 153.129C127.979 153.79 129.667 154.12 131.466 154.12C133.264 154.12 134.935 153.79 136.476 153.129C138.055 152.432 139.431 151.496 140.606 150.321C141.78 149.146 142.698 147.788 143.359 146.246C144.056 144.668 144.405 142.98 144.405 141.181C144.405 139.419 144.056 137.767 143.359 136.225C142.698 134.647 141.78 133.271 140.606 132.096C139.431 130.921 138.055 130.004 136.476 129.343C134.898 128.645 133.228 128.297 131.466 128.297Z" fill="white"/>
<circle cx="97.7539" cy="97.7539" r="95.7988" stroke="white" stroke-width="3.91016"/>
</svg>
